# AST/ASF file generated using VICON BodyLanguage
# -----------------------------------------------
:version 1.10
:name VICON
:units
  mass 1.0
  length 0.45
  angle deg
:documentation
   .ast/.asf automatically generated from VICON data using
   VICON BodyBuilder and BodyLanguage model FoxedUp or BRILLIANT.MOD
:root
   order TX TY TZ RX RY RZ
   axis XYZ
   position 0 0 0  
   orientation 0 0 0 
:bonedata
  begin
     id 1 
     name lhipjoint
     direction 0.711131 -0.61297 0.344326 
     length 2.29162 
     axis 0 0 0  XYZ
  end
  begin
     id 2 
     name lfemur
     direction 0.34202 -0.939693 0  
     length 6.71424  
     axis 0 0 20  XYZ
    dof rx ry rz
    limits (-160.0 20.0)
           (-70.0 70.0)
           (-60.0 70.0)
  end
  begin
     id 3 
     name ltibia
     direction 0.34202 -0.939693 0   
     length 6.7087   
     axis 0 0 20   XYZ
    dof rx
    limits (-10.0 170.0)
  end
  begin
     id 4 
     name lfoot
     direction 0.0230374 -0.0632947 0.997729   
     length 1.56743   
     axis -90 7.62852e-016 20   XYZ
    dof rx rz
    limits (-45.0 90.0)
           (-70.0 20.0)
  end
  begin
     id 5 
     name ltoes
     direction 1.53585e-011 -4.21885e-011 1   
     length 0.802914   
     axis -90 7.62852e-016 20   XYZ
    dof rx
    limits (-90.0 20.0)
  end
  begin
     id 6 
     name rhipjoint
     direction -0.733192 -0.592884 0.333043   
     length 2.36925  
     axis 0 0 0  XYZ 
  end
  begin
     id 7 
     name rfemur
     direction -0.34202 -0.939693 0   
     length 6.67027   
     axis 0 0 -20   XYZ
    dof rx ry rz
    limits (-160.0 20.0)
           (-70.0 70.0)
           (-70.0 60.0)
  end
  begin
     id 8 
     name rtibia
     direction -0.34202 -0.939693 0   
     length 6.6862   
     axis 0 0 -20   XYZ
    dof rx
    limits (-10.0 170.0)
 end
 begin
     id 9 
     name rfoot
     direction -0.0949739 -0.260939 0.960672   
     length 1.67698  
     axis -90 -7.62852e-016 -20   XYZ
    dof rx rz
    limits (-45.0 90.0)
           (-20.0 70.0)
  end
  begin
     id 10 
     name rtoes
     direction -1.5353e-011 -4.21868e-011 1   
     length 0.846298   
     axis -90 -7.62852e-016 -20   XYZ
    dof rx
    limits (-90.0 20.0)
  end
  begin
     id 11 
     name lowerback
     direction -0.0206828 0.999785 -0.00109866   
     length 2.04382   
     axis 0 0 0   XYZ
    dof rx ry rz
    limits (-20.0 45.0)
           (-30.0 30.0)
           (-30.0 30.0)
  end
  begin
     id 12 
     name upperback
     direction -0.0105003 0.999727 -0.0208904   
     length 2.04538   
     axis 0 0 0   XYZ
    dof rx ry rz
    limits (-20.0 45.0)
           (-30.0 30.0)
           (-30.0 30.0)
  end
  begin
     id 13 
     name thorax
     direction -0.000416255 0.999808 -0.0196023   
     length 2.0399   
     axis 0 0 0   XYZ
    dof rx ry rz
    limits (-20.0 45.0)
           (-30.0 30.0)
           (-30.0 30.0)
  end
  begin
     id 14 
     name lowerneck
     direction 0.0627861 0.989205 0.13241   
     length 1.46207   
     axis 0 0 0   XYZ
    dof rx ry rz
    limits (-20.0 45.0)
           (-30.0 30.0)
           (-30.0 30.0)
  end
  begin
     id 15 
     name upperneck
     direction 0.00627179 0.994526 0.104303   
     length 1.41419   
     axis 0 0 0   XYZ
    dof rx ry rz
    limits (-20.0 45.0)
           (-30.0 30.0)
           (-30.0 30.0)
  end
  begin
     id 16
     name head
     direction -0.00443838 0.999688 0.0245968  
     length 1.50718  
     axis 0 0 0   XYZ
    dof rx ry rz
    limits (-20.0 45.0)
           (-30.0 30.0)
           (-30.0 30.0)
  end
  begin
     id 17 
     name lclavicle
     direction 0.758742 0.650995 -0.0227258  
     length 2.86888  
     axis 0 0 0   XYZ
    dof ry rz
    limits (-20.0 10.0)
           (0.0 20.0)
  end
  begin
     id 18 
     name lhumerus
     direction 1 -4.48962e-011 1.06664e-027   
     length 4.65776   
     axis -180 -30 -90   XYZ
    dof rx ry rz
    limits (-60.0 90.0)
           (-90.0 90.0)
           (-90.0 90.0)
  end
  begin
     id 19
     name lradius
     direction 1 -4.48968e-011 1.40404e-026   
     length 3.55539   
     axis -180 -30 -90   XYZ
    dof rx
    limits (-10.0 170.0)
  end
  begin
     id 20
     name lwrist
     direction 1 -4.48976e-011 3.32647e-026   
     length 1.77769   
     axis -2.20186e-014 90 90   XYZ
    dof ry
    limits (-180.0 0.0)
 end
  begin
     id 21 
     name lhand
     direction 1 -4.48982e-011 6.65293e-026   
     length 0.707264   
     axis -4.24514e-014 90 90   XYZ
    dof rx rz
    limits (-90.0 90.0)
           (-45.0 45.0)
  end
  begin
     id 22 
     name lfingers
     direction 1 -4.48966e-011 1.33059e-025   
     length 0.570215   
     axis -8.49028e-014 90 90   XYZ
    dof rx
    limits (0.0 90.0)
  end
  begin
     id 23
     name lthumb
     direction 0.707107 -6.3493e-011 0.707107   
     length 0.818718   
     axis -90 45 2.85299e-015   XYZ
    dof rx rz
    limits (-45.0 45.0)
           (-45.0 45.0)
  end
  begin
     id 24 
     name rclavicle
     direction -0.870343 0.482028 -0.100759   
     length 3.2251  
     axis 0 0 0   XYZ 
    dof ry rz
    limits (-10.0 20.0)
           (-20.0 0.0)
  end
  begin
     id 25 
     name rhumerus
     direction -1 -4.48974e-011 -9.45849e-028  
     length 4.71925   
     axis -180 30 90   XYZ
    dof rx ry rz
    limits (-90.0 60.0)
           (-90.0 90.0)
           (-90.0 90.0)
  end
  begin
     id 26 
     name rradius
     direction -1 -4.48965e-011 1.17607e-026   
     length 3.5699   
     axis -180 30 90   XYZ
    dof rx
    limits (-10.0 170.0)
  end
  begin
     id 27 
     name rwrist
     direction -1 -4.48968e-011 3.32647e-026   
     length 1.78495   
     axis -2.20186e-014 -90 -90   XYZ
    dof ry
    limits (-180.0 0.0)
  end
  begin
     id 28
     name rhand
     direction -1 -4.48995e-011 6.65293e-026   
     length 0.507757   
     axis -4.24514e-014 -90 -90   XYZ
    dof rx rz
    limits (-90.0 90.0)
           (-45.0 45.0)
  end
  begin
     id 29
     name rfingers
     direction -1 -4.48864e-011 1.33059e-025   
     length 0.409367   
     axis -8.49028e-014 -90 -90   XYZ
    dof rx
    limits (0.0 90.0)
  end
  begin
     id 30
     name rthumb
     direction -0.707107 -6.3494e-011 0.707107   
     length 0.587771   
     axis -90 -45 -2.85299e-015   XYZ
    dof rx rz
    limits (-45.0 45.0)
           (-45.0 45.0)
  end
:hierarchy
  begin
    root lhipjoint rhipjoint lowerback
    lhipjoint lfemur
    lfemur ltibia
    ltibia lfoot
    lfoot ltoes
    rhipjoint rfemur
    rfemur rtibia
    rtibia rfoot
    rfoot rtoes
    lowerback upperback
    upperback thorax
    thorax lowerneck lclavicle rclavicle
    lowerneck upperneck
    upperneck head
    lclavicle lhumerus
    lhumerus lradius
    lradius lwrist
    lwrist lhand lthumb
    lhand lfingers
    rclavicle rhumerus
    rhumerus rradius
    rradius rwrist
    rwrist rhand rthumb
    rhand rfingers
  end

#!OML:ASF E:\Steps\Project 1\Capture day 1\Session 2\Subject.ASF
:FULLY-SPECIFIED
:DEGREES
17
root 16.456 17.9688 20.5666 -153.789 -2.21799 178.131
lowerback -29.9682 -2.34579 -6.9273
upperback -1.5476 -1.45869 0.0596549
thorax 14.1558 -1.38771 3.17436
lowerneck -5.35175 -1.76892 -0.331642
upperneck 9.02585 -2.8898 3.57866
head 3.97005 -1.36052 1.09677
rclavicle 7.70291e-015 2.26615e-014
rhumerus -40.2551 -19.0127 -75.9118
rradius 32.4128
rwrist -2.25221
rhand -5.67076 -54.2101
rfingers 7.12502
rthumb 20.1488 -83.1852
lclavicle 7.70291e-015 2.26615e-014
lhumerus -32.246 8.79377 78.21
lradius 19.0725
lwrist -6.21603
lhand -20.6851 -12.3955
lfingers 7.12502
lthumb 5.67842 17.5084
rfemur -21.9503 6.22378 21.1039
rtibia 6.59987
rfoot -20.1717 -4.00039
rtoes -17.3943
lfemur -23.2377 -9.23616 -21.1317
ltibia 9.07963
lfoot -7.47423 -3.65173
ltoes -13.5197
18
root 16.4545 17.9677 20.5644 -153.728 -2.13564 178.01
lowerback -30.0455 -2.35943 -7.06706
upperback -1.5632 -1.42529 0.0122685
thorax 14.1674 -1.38354 3.20848
lowerneck -5.34879 -1.89173 -0.324613
upperneck 9.08325 -3.06962 3.63942
head 3.99556 -1.44803 1.1065
rclavicle -1.09332e-015 3.97569e-016
rhumerus -40.3183 -19.1279 -75.8312
rradius 32.2713
rwrist -2.10507
rhand -5.65077 -54.2535
rfingers 7.12502
rthumb 20.168 -83.2266
lclavicle -1.09332e-015 3.97569e-016
lhumerus -32.3799 9.02913 78.0437
lradius 18.9941
lwrist -6.537
lhand -20.4257 -12.3243
lfingers 7.12502
lthumb 5.92881 17.5727
rfemur -21.9934 6.29569 20.9145
rtibia 6.59527
rfoot -20.186 -3.98729
rtoes -17.1519
lfemur -23.2285 -9.25272 -21.3053
ltibia 8.96735
lfoot -7.42078 -3.63363
ltoes -13.5592
19
root 16.4533 17.9659 20.5656 -153.745 -2.22349 178.09
lowerback -30.0252 -2.38007 -7.019
upperback -1.55374 -1.47349 0.0723246
thorax 14.1768 -1.40219 3.22978
lowerneck -5.36381 -1.90992 -0.370105
upperneck 9.07432 -3.09097 3.66139
head 3.9974 -1.45872 1.12076
rclavicle 8.94531e-015 -1.94809e-014
rhumerus -40.2562 -19.1321 -75.7728
rradius 32.1244
rwrist -2.00084
rhand -5.66662 -54.1489
rfingers 7.12502
rthumb 20.1528 -83.1236
lclavicle 8.94531e-015 -1.94809e-014
lhumerus -32.5354 9.41305 77.8966
lradius 18.9438
lwrist -7.03624
lhand -20.2509 -12.302
lfingers 7.12502
lthumb 6.09761 17.5903
rfemur -21.964 6.27453 21.0281
rtibia 6.57002
rfoot -19.829 -3.5709
rtoes -13.9695
lfemur -23.2278 -9.31228 -21.1778
ltibia 8.9813
lfoot -7.37721 -3.65803
ltoes -12.8825
20
root 16.449 17.9683 20.5718 -153.6 -2.26909 177.891
lowerback -30.1237 -2.45257 -7.21079
upperback -1.56335 -1.49838 0.0396681
thorax 14.2119 -1.42807 3.28391
lowerneck -5.39046 -1.90619 -0.429147
upperneck 8.96026 -3.07456 3.70803
head 3.96413 -1.44909 1.14749
rclavicle 8.79622e-015 3.57812e-015
rhumerus -40.1864 -19.2188 -75.6978
rradius 31.9702
rwrist -1.81787
rhand -5.72744 -52.7168
rfingers 7.12502
rthumb 20.0943 -81.6977
lclavicle 8.79622e-015 3.57812e-015
lhumerus -32.579 9.9197 77.7123
lradius 18.7177
lwrist -7.73042
lhand -20.5131 -12.4572
lfingers 7.12502
lthumb 5.84443 17.4422
rfemur -22.1625 6.06387 20.8105
rtibia 6.63224
rfoot -19.7262 -3.39364
rtoes -13.1009
lfemur -23.4461 -9.30435 -21.4245
ltibia 9.10574
lfoot -7.32735 -3.8522
ltoes -12.6178
21
root 16.4421 17.9617 20.5811 -153.85 -2.69582 178.476
lowerback -29.7742 -2.29991 -6.44547
upperback -1.54126 -1.57094 0.140619
thorax 14.0876 -1.40197 2.965
lowerneck -5.43089 -1.9555 -0.348265
upperneck 9.02011 -3.15654 3.72506
head 3.99419 -1.48645 1.13423
rclavicle 3.32964e-015 -1.98785e-014
rhumerus -40.2213 -19.5141 -75.5868
rradius 31.8351
rwrist -1.70786
rhand -5.38662 -54.5325
rfingers 7.12502
rthumb 20.4219 -83.4786
lclavicle 3.32964e-015 -1.98785e-014
lhumerus -32.5275 10.3896 77.4244
lradius 18.3953
lwrist -8.3905
lhand -20.5783 -12.7237
lfingers 7.12502
lthumb 5.78152 17.1774
rfemur -21.8521 5.78049 21.7012
rtibia 6.58572
rfoot -19.7417 -3.22209
rtoes -13.2238
lfemur -23.3018 -9.12441 -20.7685
ltibia 9.18065
lfoot -7.27888 -4.136
ltoes -12.6066
22
root 16.4512 17.9632 20.5756 -153.729 -2.3486 178.086
lowerback -30.0073 -2.3663 -7.04901
upperback -1.51524 -1.43351 0.0428638
thorax 14.2086 -1.38414 3.23062
lowerneck -5.41126 -1.95342 -0.329364
upperneck 9.07713 -3.16566 3.75846
head 4.0113 -1.49026 1.14176
rclavicle 7.30534e-015 1.15295e-014
rhumerus -40.2173 -19.6602 -75.5147
rradius 31.7028
rwrist -1.80877
rhand -5.43099 -54.7533
rfingers 7.12502
rthumb 20.3793 -83.704
lclavicle 7.30534e-015 1.15295e-014
lhumerus -32.5308 10.6208 77.2526
lradius 18.2199
lwrist -8.66656
lhand -20.3543 -12.69
lfingers 7.12502
lthumb 5.99773 17.2051
rfemur -22.0347 6.10485 21.0622
rtibia 6.61141
rfoot -19.7013 -3.33788
rtoes -12.6512
lfemur -23.383 -9.01513 -21.238
ltibia 9.14982
lfoot -7.33393 -4.05803
ltoes -13.2391
23
root 16.4467 17.9601 20.5795 -153.742 -2.43297 178.195
lowerback -29.9425 -2.34245 -6.90801
upperback -1.51276 -1.4543 0.0732676
thorax 14.1851 -1.38279 3.18182
lowerneck -5.4288 -1.90587 -0.33696
upperneck 9.00717 -3.09321 3.7542
head 3.98811 -1.45373 1.14532
rclavicle 1.98785e-015 -2.34566e-014
rhumerus -40.1693 -19.6982 -75.465
rradius 31.5404
rwrist -1.87905
rhand -5.45446 -54.0691
rfingers 7.12502
rthumb 20.3567 -83.0222
lclavicle 1.98785e-015 -2.34566e-014
lhumerus -32.5557 10.4586 77.3244
lradius 18.2082
lwrist -8.41871
lhand -20.3062 -12.1116
lfingers 7.12502
lthumb 6.04421 17.7822
rfemur -21.994 5.89861 21.2283
rtibia 6.54503
rfoot -19.7076 -3.08292
rtoes -12.0856
lfemur -23.3987 -9.06024 -21.1087
ltibia 9.20943
lfoot -7.3799 -4.02743
ltoes -13.2962
24
root 16.444 17.9606 20.5827 -153.746 -2.54159 178.302
lowerback -29.8918 -2.32068 -6.76249
upperback -1.51088 -1.47606 0.0808448
thorax 14.1662 -1.38157 3.10474
lowerneck -5.54047 -1.92564 -0.204138
upperneck 9.01376 -3.11592 3.62411
head 4.00703 -1.46303 1.07611
rclavicle -1.3418e-014 1.23246e-014
rhumerus -40.1657 -19.9078 -75.3397
rradius 31.3456
rwrist -1.60927
rhand -5.11074 -53.1955
rfingers 7.12502
rthumb 20.687 -82.1129
lclavicle -1.3418e-014 1.23246e-014
lhumerus -32.5686 10.2626 77.377
lradius 18.2041
lwrist -8.13374
lhand -20.4141 -11.7726
lfingers 7.12502
lthumb 5.94006 18.1241
rfemur -21.9352 5.76183 21.402
rtibia 6.43829
rfoot -19.6529 -3.0482
rtoes -12.2523
lfemur -23.4227 -9.10813 -20.9661
ltibia 9.23683
lfoot -7.3777 -4.0808
ltoes -12.5851
25
root 16.4432 17.96 20.5857 -153.732 -2.60299 178.3
lowerback -29.938 -2.33678 -6.75849
upperback -1.45808 -1.48443 0.0720428
thorax 14.2492 -1.38511 3.08856
lowerneck -5.62164 -1.93815 -0.186389
upperneck 9.00216 -3.13155 3.62038
head 4.01892 -1.46843 1.07031
rclavicle 6.55989e-015 6.36111e-015
rhumerus -40.0938 -20.0024 -75.3078
rradius 31.2563
rwrist -1.47036
rhand -5.01292 -52.8041
rfingers 7.12502
rthumb 20.781 -81.7113
lclavicle 6.55989e-015 6.36111e-015
lhumerus -32.4997 10.35 77.3324
lradius 18.1042
lwrist -8.19338
lhand -20.5805 -11.7637
lfingers 7.12502
lthumb 5.77939 18.1374
rfemur -21.8192 5.54526 21.4471
rtibia 6.16823
rfoot -19.5255 -3.03997
rtoes -12.9578
lfemur -23.4497 -9.08441 -20.9718
ltibia 9.24842
lfoot -7.34267 -4.17652
ltoes -12.3613
26
root 16.4413 17.9618 20.5882 -153.817 -2.66686 178.277
lowerback -29.8418 -2.34089 -6.77155
upperback -1.43281 -1.48022 0.0435462
thorax 14.2342 -1.38041 3.06922
lowerneck -5.48524 -1.81323 -0.377643
upperneck 8.7829 -2.96191 3.90738
head 3.92099 -1.38197 1.21007
rclavicle -1.32192e-014 3.10104e-014
rhumerus -40.1015 -20.0432 -75.3248
rradius 31.221
rwrist -1.51129
rhand -5.37337 -53.0194
rfingers 7.12502
rthumb 20.4346 -81.9641
lclavicle -1.32192e-014 3.10104e-014
lhumerus -32.4899 10.4258 77.2445
lradius 17.9887
lwrist -8.33246
lhand -20.7353 -11.6281
lfingers 7.12502
lthumb 5.62991 18.2771
rfemur -21.6355 5.1906 21.5013
rtibia 5.99259
rfoot -19.6372 -3.04888
rtoes -14.9671
lfemur -23.3415 -9.12387 -21.0079
ltibia 9.21454
lfoot -7.28101 -4.1849
ltoes -12.0136
27
root 16.4383 17.9625 20.5886 -153.803 -2.67612 178.355
lowerback -29.8946 -2.32353 -6.68899
upperback -1.4189 -1.48148 0.0558984
thorax 14.2741 -1.37693 3.03628
lowerneck -5.5001 -1.72499 -0.438104
upperneck 8.67172 -2.83832 4.00316
head 3.88485 -1.31835 1.25905
rclavicle 1.59028e-015 -7.95139e-016
rhumerus -40.0657 -20.1113 -75.2913
rradius 31.0839
rwrist -1.40681
rhand -5.82083 -53.2958
rfingers 7.12502
rthumb 20.0046 -82.2861
lclavicle 1.59028e-015 -7.95139e-016
lhumerus -32.5578 10.4159 77.2108
lradius 18.0327
lwrist -8.26435
lhand -20.5516 -11.5374
lfingers 7.12502
lthumb 5.80731 18.363
rfemur -21.7923 5.40209 21.5417
rtibia 6.27959
rfoot -20.0911 -3.40949
rtoes -16.7437
lfemur -23.3685 -9.08863 -20.9294
ltibia 9.1901
lfoot -7.24721 -4.14283
ltoes -12.1644
28
root 16.4405 17.966 20.588 -153.844 -2.55219 178.337
lowerback -29.9175 -2.32219 -6.77332
upperback -1.36946 -1.43907 0.0364862
thorax 14.3378 -1.36324 3.07697
lowerneck -5.70532 -1.76897 -0.225579
upperneck 8.78672 -2.8964 3.7608
head 3.95759 -1.34526 1.1361
rclavicle -5.76476e-015 -1.15295e-014
rhumerus -39.9814 -20.2458 -75.2624
rradius 30.8834
rwrist -1.21429
rhand -5.99193 -53.1704
rfingers 7.12502
rthumb 19.8401 -82.1778
lclavicle -5.76476e-015 -1.15295e-014
lhumerus -32.6255 10.2993 77.2049
lradius 18.1704
lwrist -7.97551
lhand -20.3107 -11.4481
lfingers 7.12502
lthumb 6.03984 18.4458
rfemur -21.8572 5.97488 21.3904
rtibia 6.44928
rfoot -20.2916 -3.87502
rtoes -16.7903
lfemur -23.3339 -8.90777 -20.9733
ltibia 9.19898
lfoot -7.29499 -4.13261
ltoes -13.3323
